<svg width="157" height="157" viewBox="0 0 157 157" fill="none" xmlns="http://www.w3.org/2000/svg">
<path d="M34.9698 117.126V129.447C57.558 134.545 104.561 144.572 111.869 143.892C119.176 143.212 120.437 136.386 120.153 133.058L34.9698 117.126Z" stroke="#F5B30D" stroke-opacity="0.29" stroke-width="3.26493" stroke-linecap="round" stroke-linejoin="round"/>
<path d="M39.179 130.393C34.5764 134.571 25.1981 145.294 25.1981 153.451" stroke="#F5B30D" stroke-opacity="0.29" stroke-width="3.26493" stroke-linecap="round" stroke-linejoin="round"/>
<path d="M109.32 143.892L113.356 153.239" stroke="#F5B30D" stroke-opacity="0.29" stroke-width="3.26493" stroke-linecap="round" stroke-linejoin="round"/>
<path d="M84.4289 126.261C71.6833 115.894 77.8658 82.9254 87.6375 74.8531C53.1733 53.0243 73.9049 10.6492 116.765 24.507C119.633 25.4341 122.241 22.6438 120.356 20.2922C109.786 7.10474 90.4438 3.26489 74.2691 3.26489C41.135 3.26489 17.9756 25.7823 17.9756 63.7006C17.9756 91.1509 30.8699 111.624 51.1165 120.088" stroke="#F5B30D" stroke-opacity="0.29" stroke-width="3.26493" stroke-linecap="round" stroke-linejoin="round"/>
<path d="M115.042 23.9584C121.543 31.4679 124.969 42.778 126.166 51.6899M133.25 87.694C133.401 85.2809 129.621 76.7945 127.168 71.7193M91.775 127.689C95.3863 128.043 108.47 125.624 113.568 123.499C122.666 119.709 128.208 107.601 131.005 98.458" stroke="#F5B30D" stroke-opacity="0.29" stroke-width="3.26493" stroke-linecap="round" stroke-linejoin="round"/>
<path d="M138.741 93.0158C138.741 96.0075 136.085 98.4327 131.412 98.4327C126.739 98.4327 124.083 96.0075 124.083 93.0158C124.083 90.0241 125.57 87.5989 131.412 87.5989C137.254 87.5989 138.741 90.0241 138.741 93.0158Z" stroke="#F5B30D" stroke-opacity="0.29" stroke-width="3.26493" stroke-linecap="round" stroke-linejoin="round"/>
<ellipse cx="103.63" cy="63.2756" rx="9.29372" ry="11.6172" stroke="#F5B30D" stroke-opacity="0.29" stroke-width="3.26493" stroke-linecap="round" stroke-linejoin="round"/>
<ellipse cx="126.401" cy="61.5233" rx="6.92671" ry="9.93101" stroke="#F5B30D" stroke-opacity="0.29" stroke-width="3.26493" stroke-linecap="round" stroke-linejoin="round"/>
<path d="M129.075 104.062H93.0689" stroke="#F5B30D" stroke-opacity="0.29" stroke-width="3.26493" stroke-linecap="round" stroke-linejoin="round"/>
<path fill-rule="evenodd" clip-rule="evenodd" d="M98.4172 62.3396C96.1633 62.3396 94.3361 64.1668 94.3361 66.4208C94.3361 68.6747 96.1633 70.5019 98.4172 70.5019C100.671 70.5019 102.498 68.6747 102.498 66.4208C102.498 64.1668 100.671 62.3396 98.4172 62.3396Z" fill="#F5B30D" fill-opacity="0.29"/>
<path fill-rule="evenodd" clip-rule="evenodd" d="M123.556 59.8909C121.302 59.8909 119.475 61.7181 119.475 63.972C119.475 66.226 121.302 68.0532 123.556 68.0532C125.81 68.0532 127.637 66.226 127.637 63.972C127.637 61.7181 125.81 59.8909 123.556 59.8909Z" fill="#F5B30D" fill-opacity="0.29"/>
</svg>
