<svg width="581" height="115" viewBox="0 0 581 115" fill="none" xmlns="http://www.w3.org/2000/svg">
<path d="M6.67 106.174L6.09 106.116C5.684 106.039 5.44233 105.855 5.365 105.565C5.365 105.488 5.28767 105.41 5.133 105.333C5.017 105.333 4.872 105.236 4.698 105.043C4.524 104.83 4.42733 104.453 4.408 103.912C4.408 103.351 4.408 102.781 4.408 102.201C4.408 101.621 4.41767 101.302 4.437 101.244C4.495 101.244 4.495 101.128 4.437 100.896C4.35967 100.142 4.35 99.6297 4.408 99.359C4.466 99.069 4.50467 98.112 4.524 96.488C4.54333 94.864 4.47567 94.0133 4.321 93.936C4.30167 93.8973 4.234 93.8973 4.118 93.936C4.002 93.9553 3.915 93.994 3.857 94.052C3.70233 94.3613 3.60567 94.516 3.567 94.516C3.48967 94.5933 3.393 94.6707 3.277 94.748C2.929 95.154 2.38767 95.27 1.653 95.096C1.131 95.0187 0.792667 94.9123 0.638 94.777C0.502667 94.6417 0.415667 94.4483 0.377 94.197C0.338333 93.9263 0.444667 93.704 0.696 93.53C1.19867 93.182 1.55633 92.7953 1.769 92.37L2.175 91.906L2.494 91.674C2.494 91.6353 2.552 91.5677 2.668 91.471C2.784 91.3743 2.9 91.2777 3.016 91.181C3.15133 91.065 3.219 90.9587 3.219 90.862L3.509 90.398C3.70233 90.2047 3.799 90.0307 3.799 89.876C3.81833 89.876 3.886 89.818 4.002 89.702C4.118 89.586 4.22433 89.499 4.321 89.441C4.45633 89.1703 4.727 88.8127 5.133 88.368C5.38433 88.0007 5.51 87.817 5.51 87.817C5.52933 87.7977 5.568 87.7687 5.626 87.73C5.70333 87.6913 5.8 87.6527 5.916 87.614C6.032 87.556 6.148 87.4883 6.264 87.411C6.39933 87.3337 6.50567 87.295 6.583 87.295C6.67967 87.2757 6.89233 87.2853 7.221 87.324C7.54967 87.3627 7.714 87.4013 7.714 87.44C7.714 87.4787 7.743 87.5463 7.801 87.643C7.859 87.7203 7.92667 87.759 8.004 87.759C8.08133 87.759 8.16833 87.8267 8.265 87.962C8.34233 87.962 8.51633 88.0297 8.787 88.165C8.94167 88.3583 9.02867 88.5033 9.048 88.6C8.932 88.658 8.874 88.774 8.874 88.948L8.613 91.326C8.36167 92.4087 8.178 94.951 8.062 98.953C7.98467 99.533 7.946 99.997 7.946 100.345C7.946 100.674 7.90733 101.196 7.83 101.911C7.75267 102.626 7.714 103.332 7.714 104.028C7.714 104.724 7.69467 105.188 7.656 105.42C7.52067 105.981 7.192 106.232 6.67 106.174ZM20 102.433L20.116 103.013L20.899 104.434C20.899 104.473 20.9474 104.589 21.044 104.782C21.16 104.975 21.2374 105.101 21.276 105.159C21.334 105.217 21.4114 105.323 21.508 105.478C21.566 105.555 21.6917 105.71 21.885 105.942C22.2717 106.232 22.2814 106.58 21.914 106.986C21.2567 107.663 20.5607 107.682 19.826 107.044C19.4007 106.715 19.0334 106.29 18.724 105.768C18.608 105.613 18.405 105.304 18.115 104.84L17.448 103.419L17.245 103.1C17.245 103.081 17.2257 103.023 17.187 102.926C17.1484 102.81 17.1194 102.704 17.1 102.607C17.0034 102.588 16.926 102.51 16.868 102.375C16.7714 102.51 16.4427 102.984 15.882 103.796C15.3214 104.589 15.012 105.024 14.954 105.101C14.8574 105.217 14.78 105.333 14.722 105.449C14.664 105.565 14.5867 105.71 14.49 105.884C14.3934 106.058 14.316 106.174 14.258 106.232C14.2194 106.309 14.1517 106.406 14.055 106.522C13.9584 106.657 13.8714 106.735 13.794 106.754C13.7167 106.773 13.62 106.793 13.504 106.812C13.2914 106.851 13.0207 106.706 12.692 106.377C12.518 106.145 12.431 105.787 12.431 105.304C12.4697 105.091 12.518 104.908 12.576 104.753C12.6534 104.598 12.7114 104.415 12.75 104.202C13.1367 103.119 13.4074 102.491 13.562 102.317C13.736 102.124 13.8617 101.911 13.939 101.679C14.0164 101.428 14.1034 101.205 14.2 101.012C14.4514 100.587 14.7607 100.016 15.128 99.301L14.519 97.764C14.3644 97.4933 14.258 97.2227 14.2 96.952C14.142 96.6813 14.055 96.4107 13.939 96.14C13.6684 95.5407 13.7167 94.9897 14.084 94.487C14.316 94.255 14.5287 94.1197 14.722 94.081C14.9154 94.0423 15.273 94.0327 15.795 94.052C16.3364 94.0713 16.8294 94.3033 17.274 94.748C17.274 94.8833 17.3707 95.1153 17.564 95.444C17.7767 96.198 17.8927 96.604 17.912 96.662C17.9507 96.72 17.97 96.7683 17.97 96.807L19.217 95.676C19.2944 95.56 19.5167 95.4247 19.884 95.27L20.174 95.096C20.29 94.9993 20.7154 94.9123 21.45 94.835C22.088 95.009 22.494 95.183 22.668 95.357C22.668 95.3763 22.7454 95.5697 22.9 95.937C22.8614 96.3817 22.494 96.7393 21.798 97.01L20.58 97.938C20.3094 98.112 20.058 98.3247 19.826 98.576L18.811 99.562C18.985 99.9293 19.217 100.5 19.507 101.273C19.6424 101.756 19.8067 102.143 20 102.433Z" fill="white"/>
<path d="M155.597 28.319C155.423 28.3963 155.133 28.435 154.727 28.435C154.321 28.435 153.847 28.3867 153.306 28.29C152.223 28.058 151.518 27.681 151.189 27.159C150.764 26.463 150.551 25.7187 150.551 24.926C150.474 24.23 150.831 23.882 151.624 23.882C151.798 23.882 152.001 23.94 152.233 24.056C152.484 24.172 152.658 24.2783 152.755 24.375C152.871 24.433 153.113 24.4813 153.48 24.52C154.621 24.6747 155.694 24.346 156.699 23.534C157.356 23.0507 157.743 22.6543 157.859 22.345C157.994 22.0163 158.062 21.6297 158.062 21.185C158.062 20.7403 157.869 20.4793 157.482 20.402C157.095 20.3053 156.68 20.3247 156.235 20.46C155.81 20.576 155.365 20.663 154.901 20.721C154.437 20.895 154.041 20.7983 153.712 20.431C153.403 20.0637 153.316 19.387 153.451 18.401C153.528 17.995 153.664 17.6953 153.857 17.502C154.418 17.3087 154.969 17.1733 155.51 17.096C155.665 17.0767 155.906 16.9123 156.235 16.603C156.583 16.2937 156.97 15.8297 157.395 15.211C157.84 14.573 157.994 14.022 157.859 13.558C157.724 13.094 157.385 12.92 156.844 13.036C156.457 13.0747 156.177 13.123 156.003 13.181C155.848 13.2197 155.471 13.3743 154.872 13.645C154.021 13.8963 153.412 14.022 153.045 14.022C152.697 14.022 152.436 13.906 152.262 13.674C151.779 12.8233 151.498 12.2047 151.421 11.818C151.363 11.4313 151.402 11.0737 151.537 10.745C151.556 10.5517 151.614 10.4067 151.711 10.31C151.827 10.2133 152.04 10.1747 152.349 10.194C152.542 10.0973 152.794 10.0973 153.103 10.194C153.606 10.2907 153.944 10.2907 154.118 10.194L154.64 10.02C155.027 10.0007 155.288 9.92333 155.423 9.788C155.578 9.63333 155.993 9.57533 156.67 9.614L157.134 9.44C157.405 9.40133 157.627 9.43033 157.801 9.527C158.439 9.759 158.932 9.95233 159.28 10.107C159.261 10.165 159.425 10.2423 159.773 10.339C160.121 10.629 160.324 10.977 160.382 11.383C160.691 12.1563 160.914 12.8233 161.049 13.384C161.204 13.9447 161.204 14.4087 161.049 14.776C160.894 15.1433 160.691 15.4623 160.44 15.733C160.208 15.9843 160.005 16.2067 159.831 16.4C159.56 16.7093 159.164 17.0767 158.642 17.502C159.164 17.6567 159.512 17.8983 159.686 18.227C159.744 18.2463 159.85 18.3527 160.005 18.546C160.16 18.7393 160.266 18.9133 160.324 19.068C160.595 19.4547 160.749 19.8413 160.788 20.228C160.904 20.6147 160.981 21.1753 161.02 21.91C161.078 22.6447 160.933 23.389 160.585 24.143L160.266 25.1C160.131 25.5833 159.957 25.9507 159.744 26.202C159.551 26.4533 159.145 26.7433 158.526 27.072C157.907 27.3813 157.53 27.5457 157.395 27.565C156.95 27.8743 156.351 28.1257 155.597 28.319ZM170.816 24.433L170.932 25.013L171.715 26.434C171.715 26.4727 171.763 26.5887 171.86 26.782C171.976 26.9753 172.053 27.101 172.092 27.159C172.15 27.217 172.227 27.3233 172.324 27.478C172.382 27.5553 172.507 27.71 172.701 27.942C173.087 28.232 173.097 28.58 172.73 28.986C172.072 29.6627 171.376 29.682 170.642 29.044C170.216 28.7153 169.849 28.29 169.54 27.768C169.424 27.6133 169.221 27.304 168.931 26.84L168.264 25.419L168.061 25.1C168.061 25.0807 168.041 25.0227 168.003 24.926C167.964 24.81 167.935 24.7037 167.916 24.607C167.819 24.5877 167.742 24.5103 167.684 24.375C167.587 24.5103 167.258 24.984 166.698 25.796C166.137 26.5887 165.828 27.0237 165.77 27.101C165.673 27.217 165.596 27.333 165.538 27.449C165.48 27.565 165.402 27.71 165.306 27.884C165.209 28.058 165.132 28.174 165.074 28.232C165.035 28.3093 164.967 28.406 164.871 28.522C164.774 28.6573 164.687 28.7347 164.61 28.754C164.532 28.7733 164.436 28.7927 164.32 28.812C164.107 28.8507 163.836 28.7057 163.508 28.377C163.334 28.145 163.247 27.7873 163.247 27.304C163.285 27.0913 163.334 26.9077 163.392 26.753C163.469 26.5983 163.527 26.4147 163.566 26.202C163.952 25.1193 164.223 24.491 164.378 24.317C164.552 24.1237 164.677 23.911 164.755 23.679C164.832 23.4277 164.919 23.2053 165.016 23.012C165.267 22.5867 165.576 22.0163 165.944 21.301L165.335 19.764C165.18 19.4933 165.074 19.2227 165.016 18.952C164.958 18.6813 164.871 18.4107 164.755 18.14C164.484 17.5407 164.532 16.9897 164.9 16.487C165.132 16.255 165.344 16.1197 165.538 16.081C165.731 16.0423 166.089 16.0327 166.611 16.052C167.152 16.0713 167.645 16.3033 168.09 16.748C168.09 16.8833 168.186 17.1153 168.38 17.444C168.592 18.198 168.708 18.604 168.728 18.662C168.766 18.72 168.786 18.7683 168.786 18.807L170.033 17.676C170.11 17.56 170.332 17.4247 170.7 17.27L170.99 17.096C171.106 16.9993 171.531 16.9123 172.266 16.835C172.904 17.009 173.31 17.183 173.484 17.357C173.484 17.3763 173.561 17.5697 173.716 17.937C173.677 18.3817 173.31 18.7393 172.614 19.01L171.396 19.938C171.125 20.112 170.874 20.3247 170.642 20.576L169.627 21.562C169.801 21.9293 170.033 22.4997 170.323 23.273C170.458 23.7563 170.622 24.143 170.816 24.433Z" fill="white"/>
<path d="M547.509 97L547.161 96.942C547.064 96.942 546.929 96.8743 546.755 96.739C546.581 96.5843 546.475 96.5457 546.436 96.623C546.417 96.681 546.32 96.6423 546.146 96.507C545.701 96.1783 545.324 95.7337 545.015 95.173C544.725 94.6123 544.696 94.1387 544.928 93.752C545.025 93.5007 545.228 93.172 545.537 92.766C545.846 92.3407 546.049 92.041 546.146 91.867C546.243 91.693 546.417 91.461 546.668 91.171C546.919 90.8617 547.084 90.6103 547.161 90.417C547.238 90.1077 547.499 89.808 547.944 89.518C548.06 89.286 548.157 89.112 548.234 88.996C548.311 88.8607 548.389 88.7157 548.466 88.561C548.698 88.1163 548.843 87.8553 548.901 87.778C548.978 87.6813 549.046 87.5847 549.104 87.488C549.201 87.3527 549.375 87.1883 549.626 86.995C549.684 86.8017 549.771 86.589 549.887 86.357C550.022 86.1057 550.109 85.9413 550.148 85.864C550.844 85.0133 551.347 84.0757 551.656 83.051C551.733 82.6257 551.685 82.2873 551.511 82.036C551.337 81.7847 551.018 81.7557 550.554 81.949C549.22 82.5677 548.06 83.7567 547.074 85.516C546.861 85.6127 546.668 85.574 546.494 85.4C546.339 85.342 546.146 85.197 545.914 84.965C545.663 84.8103 545.498 84.617 545.421 84.385C545.344 84.153 545.305 83.7567 545.305 83.196C545.305 82.616 545.382 82.181 545.537 81.891C545.692 81.601 545.817 81.427 545.914 81.369C546.03 81.253 546.088 81.079 546.088 80.847C546.204 80.615 546.32 80.4797 546.436 80.441C546.513 80.2283 546.533 80.093 546.494 80.035L546.668 79.803L547.016 79.165C547.248 78.817 547.538 78.6043 547.886 78.527C547.963 78.4497 548.031 78.3917 548.089 78.353C548.147 78.295 548.215 78.2273 548.292 78.15C548.369 78.15 548.485 78.1113 548.64 78.034C548.795 78.034 549.046 78.005 549.394 77.947C549.471 77.8697 549.655 77.8407 549.945 77.86C550.235 77.86 550.477 77.918 550.67 78.034C551.018 78.0727 551.24 78.1017 551.337 78.121C551.453 78.1403 551.53 78.15 551.569 78.15C551.608 78.15 551.714 78.2563 551.888 78.469L552.178 78.701C552.217 78.701 552.449 78.933 552.874 79.397C553.319 79.8417 553.57 80.151 553.628 80.325C553.705 80.4797 553.783 80.586 553.86 80.644C553.957 80.702 554.131 80.905 554.382 81.253C554.633 81.601 554.798 81.862 554.875 82.036C555.107 82.4807 555.184 83.1283 555.107 83.979C555.049 84.8297 554.807 85.6417 554.382 86.415C553.957 87.1883 553.106 88.4643 551.83 90.243C551.347 90.9197 550.37 92.0603 548.901 93.665C551.782 93.665 553.251 93.6843 553.309 93.723C553.367 93.7617 553.686 94.0227 554.266 94.506C554.363 94.622 554.527 94.912 554.759 95.376C554.991 95.8207 555.117 96.1397 555.136 96.333C555.233 96.5843 555.3 96.71 555.339 96.71C555.397 96.7873 555.416 96.913 555.397 97.087C555.378 97.2803 555.291 97.377 555.136 97.377C555.001 97.2223 554.662 97.116 554.121 97.058C553.599 97.0193 552.797 97 551.714 97C550.631 97 549.858 97.0193 549.394 97.058C548.137 97.058 547.509 97.0387 547.509 97ZM564.213 89.373L564.271 88.445C564.349 87.7683 564.3 86.8017 564.126 85.545C564.107 84.8683 564.03 84.356 563.894 84.008C563.759 83.6407 563.479 83.1283 563.053 82.471C562.705 82.1617 562.531 81.9587 562.531 81.862C562.319 81.6493 562.067 81.804 561.777 82.326C561.7 82.616 561.323 83.4473 560.646 84.82C560.704 84.9747 560.646 85.139 560.472 85.313C560.434 85.371 560.414 85.487 560.414 85.661C560.472 85.777 560.492 85.9413 560.472 86.154C560.414 86.3473 560.356 87.1593 560.298 88.59C560.298 89.402 560.366 89.982 560.501 90.33C560.501 90.9873 560.54 91.5093 560.617 91.896C560.598 92.4373 560.637 92.8627 560.733 93.172C561.004 93.81 561.294 94.129 561.603 94.129C561.913 94.129 562.251 93.8777 562.618 93.375C563.005 92.8723 563.305 92.2537 563.517 91.519C563.498 91.3643 563.527 91.287 563.604 91.287C563.604 91.1517 563.653 90.9293 563.749 90.62C563.865 90.2913 563.923 90.069 563.923 89.953L564.213 89.373ZM557.456 83.254L557.543 82.645C557.543 82.5097 557.64 82.326 557.833 82.094C557.949 81.7847 557.998 81.5817 557.978 81.485C557.978 81.3883 558.075 81.137 558.268 80.731C558.481 80.3057 558.674 80.0157 558.848 79.861C559.022 79.687 559.187 79.484 559.341 79.252C559.341 79.1553 559.399 79.049 559.515 78.933C559.651 78.817 559.786 78.7493 559.921 78.73C560.366 78.5753 560.704 78.5367 560.936 78.614C561.536 78.846 561.893 78.8943 562.009 78.759C562.048 78.701 562.241 78.643 562.589 78.585C562.957 78.5077 563.208 78.4787 563.343 78.498C563.498 78.498 563.662 78.5657 563.836 78.701C564.513 79.0297 565.18 79.6677 565.837 80.615C566.514 81.5623 566.988 82.558 567.258 83.602C567.684 84.9167 567.829 86.212 567.693 87.488C567.558 88.938 567.249 90.3977 566.765 91.867C566.282 93.3363 565.982 94.1773 565.866 94.39C565.77 94.6027 565.683 94.767 565.605 94.883C565.547 94.9797 565.509 95.0957 565.489 95.231C565.47 95.347 565.325 95.5597 565.054 95.869C564.784 96.1783 564.581 96.3523 564.445 96.391C563.904 96.8163 563.421 97.0387 562.995 97.058C562.899 97.0773 562.734 97.0773 562.502 97.058C562.29 97.058 562.096 97.058 561.922 97.058C561.748 97.058 561.613 97.0773 561.516 97.116C561.168 97.0773 560.888 97.058 560.675 97.058C560.482 97.0773 560.202 97 559.834 96.826C559.254 96.4587 558.79 96.0043 558.442 95.463C558.365 95.1343 558.259 94.9023 558.123 94.767L557.833 94.129C557.621 93.9937 557.495 93.578 557.456 92.882C556.857 91.142 556.712 88.3773 557.021 84.588C557.021 84.3367 557.089 84.211 557.224 84.211C557.282 84.1143 557.302 83.9983 557.282 83.863C557.282 83.7277 557.34 83.5247 557.456 83.254ZM576.633 93.433L576.749 94.013L577.532 95.434C577.532 95.4727 577.58 95.5887 577.677 95.782C577.793 95.9753 577.87 96.101 577.909 96.159C577.967 96.217 578.044 96.3233 578.141 96.478C578.199 96.5553 578.325 96.71 578.518 96.942C578.905 97.232 578.914 97.58 578.547 97.986C577.89 98.6627 577.194 98.682 576.459 98.044C576.034 97.7153 575.666 97.29 575.357 96.768C575.241 96.6133 575.038 96.304 574.748 95.84L574.081 94.419L573.878 94.1C573.878 94.0807 573.859 94.0227 573.82 93.926C573.781 93.81 573.752 93.7037 573.733 93.607C573.636 93.5877 573.559 93.5103 573.501 93.375C573.404 93.5103 573.076 93.984 572.515 94.796C571.954 95.5887 571.645 96.0237 571.587 96.101C571.49 96.217 571.413 96.333 571.355 96.449C571.297 96.565 571.22 96.71 571.123 96.884C571.026 97.058 570.949 97.174 570.891 97.232C570.852 97.3093 570.785 97.406 570.688 97.522C570.591 97.6573 570.504 97.7347 570.427 97.754C570.35 97.7733 570.253 97.7927 570.137 97.812C569.924 97.8507 569.654 97.7057 569.325 97.377C569.151 97.145 569.064 96.7873 569.064 96.304C569.103 96.0913 569.151 95.9077 569.209 95.753C569.286 95.5983 569.344 95.4147 569.383 95.202C569.77 94.1193 570.04 93.491 570.195 93.317C570.369 93.1237 570.495 92.911 570.572 92.679C570.649 92.4277 570.736 92.2053 570.833 92.012C571.084 91.5867 571.394 91.0163 571.761 90.301L571.152 88.764C570.997 88.4933 570.891 88.2227 570.833 87.952C570.775 87.6813 570.688 87.4107 570.572 87.14C570.301 86.5407 570.35 85.9897 570.717 85.487C570.949 85.255 571.162 85.1197 571.355 85.081C571.548 85.0423 571.906 85.0327 572.428 85.052C572.969 85.0713 573.462 85.3033 573.907 85.748C573.907 85.8833 574.004 86.1153 574.197 86.444C574.41 87.198 574.526 87.604 574.545 87.662C574.584 87.72 574.603 87.7683 574.603 87.807L575.85 86.676C575.927 86.56 576.15 86.4247 576.517 86.27L576.807 86.096C576.923 85.9993 577.348 85.9123 578.083 85.835C578.721 86.009 579.127 86.183 579.301 86.357C579.301 86.3763 579.378 86.5697 579.533 86.937C579.494 87.3817 579.127 87.7393 578.431 88.01L577.213 88.938C576.942 89.112 576.691 89.3247 576.459 89.576L575.444 90.562C575.618 90.9293 575.85 91.4997 576.14 92.273C576.275 92.7563 576.44 93.143 576.633 93.433Z" fill="white"/>
<rect y="53" width="574" height="17" rx="8.5" fill="#D9D9D9"/>
<rect y="53" width="165" height="17" rx="8.5" fill="#F5B30D"/>
<circle cx="163.5" cy="60.5" r="13.5" fill="#F5B30D"/>
</svg>
