<svg width="115" height="111" viewBox="0 0 115 111" fill="none" xmlns="http://www.w3.org/2000/svg">
<rect width="115" height="111" rx="8" fill="#D9D9D9"/>
<path d="M78.5 78C82.088 78 85 74.8956 85 71.0658C85 67.236 82.088 64.1342 78.5 64.1342C78.5 60.3044 75.588 57.2 72 57.2M39.5 78C35.912 78 33 74.8956 33 71.0658C33 67.236 35.912 64.1342 39.5 64.1342C39.5 60.3044 42.412 57.2 46 57.2M53.8 59.8V72.8M64.2 59.8V65M52.9342 40.8564V37.4764C52.9342 33.6648 54.5228 30.3836 56.8654 27.6146C57.7754 26.5382 58.233 26 59 26C59.767 26 60.222 26.5382 61.1346 27.6146C63.4746 30.3836 65.0658 33.6648 65.0658 37.4738V40.8564C65.0658 43.6436 65.0658 44.434 66.7506 45.6534C68.0974 46.5192 69.4 47.3564 69.4 49.0334C69.4 51.0718 68.5342 52 66.6336 52H51.3664C49.4684 52 48.6 51.0718 48.6 49.036C48.6 47.3564 49.9026 46.5192 51.252 45.6534C52.9342 44.434 52.9342 43.6436 52.9342 40.8564Z" stroke="#4F4B3F" stroke-width="1.5" stroke-linecap="round" stroke-linejoin="round"/>
</svg>
