<svg width="115" height="111" viewBox="0 0 115 111" fill="none" xmlns="http://www.w3.org/2000/svg">
<rect width="115" height="111" rx="8" fill="#D9D9D9"/>
<mask id="mask0_2015_70" style="mask-type:luminance" maskUnits="userSpaceOnUse" x="33" y="34" width="65" height="41">
<path d="M77.7207 73.2556C78.548 73.2556 79.3284 72.8473 79.7509 72.1363C81.9329 68.4638 83.1858 64.1745 83.1858 59.5929C83.1858 46.0106 72.1752 35 58.5929 35C45.0105 35 34 46.0106 34 59.5929C34 64.1745 35.2529 68.4638 37.4348 72.1363C37.8573 72.8473 38.638 73.2556 39.4651 73.2556H77.7207Z" stroke="white" stroke-width="2" stroke-linecap="round"/>
<path d="M59.2754 49.6409C53.1363 48.1436 47.6643 50.9302 47.0474 55.8679C46.4305 60.8057 50.9032 66.0178 57.0423 67.515C63.1813 69.0123 97.0488 68.0631 97.0488 68.0631C97.0488 68.0631 65.4144 51.1382 59.2754 49.6409Z" fill="black"/>
<path d="M58.883 54.5673C55.8504 53.8492 53.12 55.2022 52.8155 57.5739C52.511 59.9456 54.7431 62.4736 57.7757 63.1917C60.8083 63.9098 85.8986 65.4076 85.8986 65.4076C85.8986 65.4076 61.9156 55.2854 58.883 54.5673Z" fill="white"/>
</mask>
<g mask="url(#mask0_2015_70)">
<path d="M25.8023 21.3372H91.3833V86.9182H25.8023V21.3372Z" fill="#4F4B3F"/>
</g>
</svg>
