<svg width="115" height="111" viewBox="0 0 115 111" fill="none" xmlns="http://www.w3.org/2000/svg">
<rect width="115" height="111" rx="8" fill="#D9D9D9"/>
<path d="M69.0985 66.3306L69.0966 66.3325L67.3316 68.0897C66.7914 68.6274 65.9211 68.6247 65.3914 68.0916L65.3891 68.0894L57.8524 60.6018L57.4996 60.2513L57.1472 60.6021L49.6183 68.0975C49.0782 68.6352 48.2079 68.6325 47.6782 68.0994L47.6755 68.0967L45.9034 66.3403C45.9032 66.3402 45.9031 66.34 45.9029 66.3399C45.3645 65.8034 45.3674 64.9411 45.9015 64.415L45.9034 64.4132L56.5251 53.8388L56.5269 53.8369C57.0659 53.2947 57.9362 53.2947 58.4749 53.831L69.0966 64.4054C69.6355 64.9419 69.6328 65.8044 69.0985 66.3306ZM45.9034 51.404L45.9015 51.4021C45.3672 50.8759 45.3645 50.0134 45.9034 49.4769L56.5251 38.9025C57.0662 38.3637 57.935 38.3692 58.4555 38.8987L58.4555 38.8987L58.4593 38.9025L69.081 49.4769L69.0829 49.4787C69.6171 50.0049 69.6199 50.8675 69.081 51.404L67.3159 53.1612L67.314 53.1631C66.7843 53.6962 65.914 53.6989 65.3738 53.1612L57.845 45.6658L57.4922 45.3147L57.1394 45.6658L49.6105 53.1612L49.6086 53.1631C49.0789 53.6962 48.2086 53.6989 47.6684 53.1612L45.9034 51.404Z" stroke="#4F4B3F"/>
</svg>
