<svg width="115" height="111" viewBox="0 0 115 111" fill="none" xmlns="http://www.w3.org/2000/svg">
<rect width="115" height="111" rx="8" fill="#D9D9D9"/>
<path d="M37.5488 50.6704V50.1704H37.0488H33.0749C31.6837 50.1704 30.9676 48.4628 31.9658 47.4557L39.3909 39.9639L39.3909 39.9639C40.0039 39.3454 40.996 39.3453 41.6091 39.9639L49.0342 47.4557C49.0342 47.4557 49.0342 47.4557 49.0342 47.4557C50.0325 48.4629 49.3162 50.1704 47.9251 50.1704H43.9511H43.4511V50.6704V76.9554C43.4511 77.2603 43.2072 77.5 42.9158 77.5H38.0841C37.7927 77.5 37.5488 77.2603 37.5488 76.9554V50.6704Z" stroke="#4F4B3F"/>
<path d="M54.5488 37.6704V37.1704H54.0488H50.0749C48.6837 37.1704 47.9676 35.4628 48.9658 34.4557L56.3909 26.9639L56.3909 26.9639C57.0039 26.3454 57.996 26.3453 58.6091 26.9639L66.0342 34.4557C66.0342 34.4557 66.0342 34.4557 66.0342 34.4557C67.0325 35.4629 66.3162 37.1704 64.9251 37.1704H60.9511H60.4511V37.6704V63.9554C60.4511 64.2603 60.2072 64.5 59.9158 64.5H55.0841C54.7927 64.5 54.5488 64.2603 54.5488 63.9554V37.6704Z" stroke="#4F4B3F"/>
<path d="M71.5488 50.6704V50.1704H71.0488H67.0749C65.6837 50.1704 64.9676 48.4628 65.9658 47.4557L73.3909 39.9639L73.3909 39.9639C74.0039 39.3454 74.996 39.3453 75.6091 39.9639L83.0342 47.4557C83.0342 47.4557 83.0342 47.4557 83.0342 47.4557C84.0325 48.4629 83.3162 50.1704 81.9251 50.1704H77.9511H77.4511V50.6704V76.9554C77.4511 77.2603 77.2072 77.5 76.9158 77.5H72.0841C71.7927 77.5 71.5488 77.2603 71.5488 76.9554V50.6704Z" stroke="#4F4B3F"/>
</svg>
