<svg width="60" height="62" viewBox="0 0 60 62" fill="none" xmlns="http://www.w3.org/2000/svg">
<path d="M30 0C13.4274 0 0 13.875 0 31C0 48.125 13.4274 62 30 62C46.5726 62 60 48.125 60 31C60 13.875 46.5726 0 30 0ZM44.7339 21.2375L39.8105 45.2125C39.4476 46.9125 38.4677 47.325 37.1008 46.525L29.6008 40.8125L25.9839 44.4125C25.5847 44.825 25.246 45.175 24.4718 45.175L25.004 37.2875L38.9032 24.3125C39.5081 23.7625 38.7702 23.45 37.9718 24L20.7944 35.175L13.3911 32.7875C11.7823 32.2625 11.746 31.125 13.7298 30.325L42.6532 18.8C43.996 18.3 45.1694 19.1375 44.7339 21.2375Z" fill="white"/>
</svg>
