<svg width="200" height="200" viewBox="0 0 200 200" fill="none" xmlns="http://www.w3.org/2000/svg">
<g clip-path="url(#clip0_2015_268)">
<path d="M170.712 170.708C209.766 131.654 209.766 68.3343 170.712 29.2799C131.657 -9.77446 68.3377 -9.77446 29.2833 29.2799C-9.77108 68.3343 -9.77108 131.654 29.2833 170.708C68.3377 209.763 131.657 209.763 170.712 170.708Z" fill="url(#paint0_linear_2015_268)"/>
<path d="M199.87 100.165C199.871 93.9611 199.297 87.7701 198.156 81.6718L150.403 41.7681L92.9986 116.504L67.0576 151.396L121.085 197.875C143.395 193.023 163.375 180.686 177.706 162.912C192.037 145.138 199.858 122.997 199.87 100.165Z" fill="url(#paint1_linear_2015_268)"/>
<path d="M52.5435 112.113L64.6218 149.05C64.82 149.658 65.1636 150.208 65.6229 150.652C66.0822 151.096 66.6431 151.421 67.2568 151.599C67.8705 151.777 68.5184 151.802 69.1441 151.673C69.7697 151.543 70.3542 151.262 70.8465 150.855L106.931 121.085C106.931 121.085 68.5811 106.18 68.5811 106.941C68.5811 107.703 52.5435 112.113 52.5435 112.113Z" fill="#B5D1DB"/>
<path d="M147.717 41.1067C124.162 50.4286 48.1231 81.5818 19.3455 93.3896C18.5104 93.7314 17.801 94.3223 17.3137 95.0817C16.8264 95.8411 16.585 96.7323 16.6223 97.6338C16.6595 98.5354 16.9736 99.4035 17.5219 100.12C18.0701 100.837 18.8259 101.367 19.6863 101.639L52.5435 112.114L64.5718 148.94C64.7969 149.623 65.2013 150.232 65.7426 150.705C66.284 151.177 66.9424 151.496 67.649 151.626C68.7516 151.837 70.3854 121.806 70.3854 121.806C70.3854 121.806 104.927 147.427 121.315 159.525C122.245 160.212 123.334 160.652 124.48 160.803C125.626 160.954 126.792 160.811 127.868 160.388C128.944 159.965 129.895 159.276 130.632 158.385C131.369 157.495 131.867 156.431 132.08 155.295L153.33 45.7476C153.468 45.0168 153.408 44.2624 153.155 43.563C152.902 42.8635 152.466 42.2446 151.893 41.7707C151.32 41.2969 150.63 40.9853 149.896 40.8685C149.161 40.7517 148.409 40.834 147.717 41.1067Z" fill="white"/>
<path d="M67.659 151.626C68.7616 151.837 70.3954 121.806 70.3954 121.806L127.149 68.501C127.222 68.4249 127.265 68.3251 127.271 68.2197C127.277 68.1144 127.245 68.0105 127.18 67.9268C127.116 67.8431 127.024 67.7852 126.921 67.7637C126.817 67.7421 126.71 67.7584 126.618 67.8094L52.5435 112.113L64.5717 148.94C64.7977 149.624 65.2036 150.234 65.7468 150.707C66.2901 151.179 66.9506 151.497 67.659 151.626Z" fill="#D6E2EA"/>
</g>
<defs>
<linearGradient id="paint0_linear_2015_268" x1="-0.00505807" y1="99.9953" x2="200.005" y2="99.9953" gradientUnits="userSpaceOnUse">
<stop stop-color="#5190C5"/>
<stop offset="1" stop-color="#72B3E3"/>
</linearGradient>
<linearGradient id="paint1_linear_2015_268" x1="100.797" y1="84.709" x2="177.166" y2="161.068" gradientUnits="userSpaceOnUse">
<stop stop-color="#2C6FA8"/>
<stop offset="0.21" stop-color="#3879B1" stop-opacity="0.68"/>
<stop offset="0.44" stop-color="#4383BA" stop-opacity="0.39"/>
<stop offset="0.63" stop-color="#4A8AC0" stop-opacity="0.18"/>
<stop offset="0.79" stop-color="#4F8EC4" stop-opacity="0.05"/>
<stop offset="0.9" stop-color="#5190C5" stop-opacity="0"/>
</linearGradient>
<clipPath id="clip0_2015_268">
<rect width="200" height="200" fill="white"/>
</clipPath>
</defs>
</svg>
